<svg width="14" height="14" viewBox="0 0 14 14" fill="none" xmlns="http://www.w3.org/2000/svg">
<path d="M7.00002 7.63362C7.18882 7.63362 7.35282 7.56402 7.49202 7.42482C7.63068 7.28615 7.70002 7.12242 7.70002 6.93362V4.36642C7.70002 4.17762 7.63068 4.01655 7.49202 3.88322C7.35282 3.74988 7.18882 3.68322 7.00002 3.68322C6.81122 3.68322 6.64722 3.75282 6.50802 3.89202C6.36935 4.03068 6.30002 4.19442 6.30002 4.38322V6.95042C6.30002 7.13922 6.36935 7.30028 6.50802 7.43362C6.64722 7.56695 6.81122 7.63362 7.00002 7.63362ZM7.00002 10.3504C7.18882 10.3504 7.35282 10.2864 7.49202 10.1584C7.63068 10.0304 7.70002 9.86082 7.70002 9.64962C7.70002 9.46082 7.63068 9.29708 7.49202 9.15842C7.35282 9.01975 7.18882 8.95042 7.00002 8.95042C6.81122 8.95042 6.64722 9.01975 6.50802 9.15842C6.36935 9.29708 6.30002 9.46082 6.30002 9.64962C6.30002 9.86082 6.36935 10.0304 6.50802 10.1584C6.64722 10.2864 6.81122 10.3504 7.00002 10.3504ZM7.00002 13.6664C6.07788 13.6664 5.21122 13.4915 4.40002 13.1416C3.58882 12.7918 2.88322 12.3168 2.28322 11.7168C1.68322 11.1168 1.20828 10.4112 0.858418 9.60002C0.508551 8.78882 0.333618 7.92215 0.333618 7.00002C0.333618 6.07788 0.508551 5.21122 0.858418 4.40002C1.20828 3.58882 1.68322 2.88322 2.28322 2.28322C2.88322 1.68322 3.58882 1.20828 4.40002 0.858418C5.21122 0.508551 6.07788 0.333618 7.00002 0.333618C7.92215 0.333618 8.78882 0.508551 9.60002 0.858418C10.4112 1.20828 11.1168 1.68322 11.7168 2.28322C12.3168 2.88322 12.7918 3.58882 13.1416 4.40002C13.4915 5.21122 13.6664 6.07788 13.6664 7.00002C13.6664 7.92215 13.4915 8.78882 13.1416 9.60002C12.7918 10.4112 12.3168 11.1168 11.7168 11.7168C11.1168 12.3168 10.4112 12.7918 9.60002 13.1416C8.78882 13.4915 7.92215 13.6664 7.00002 13.6664Z" fill="white"/>
</svg>
