<svg width="12" height="12" viewBox="0 0 12 12" fill="none" xmlns="http://www.w3.org/2000/svg">
<path d="M1.5999 11.6C1.2699 11.6 0.987402 11.4825 0.752402 11.2475C0.517402 11.0125 0.399902 10.73 0.399902 10.4V1.60002C0.399902 1.27002 0.517402 0.987525 0.752402 0.752525C0.987402 0.517525 1.2699 0.400024 1.5999 0.400024H10.3999C10.7299 0.400024 11.0124 0.517525 11.2474 0.752525C11.4824 0.987525 11.5999 1.27002 11.5999 1.60002V10.4C11.5999 10.73 11.4824 11.0125 11.2474 11.2475C11.0124 11.4825 10.7299 11.6 10.3999 11.6H1.5999ZM1.5999 10.4H10.3999V2.80002H1.5999V10.4ZM3.3999 5.98336C3.2299 5.98336 3.0874 5.9262 2.9724 5.81187C2.8574 5.69754 2.7999 5.55587 2.7999 5.38687C2.7999 5.21786 2.8574 5.07502 2.9724 4.95836C3.0874 4.84169 3.2299 4.78336 3.3999 4.78336H8.5999C8.7699 4.78336 8.9124 4.84052 9.0274 4.95484C9.1424 5.06917 9.1999 5.21084 9.1999 5.37984C9.1999 5.54885 9.1424 5.69169 9.0274 5.80836C8.9124 5.92502 8.7699 5.98336 8.5999 5.98336H3.3999ZM3.3999 8.40002C3.2299 8.40002 3.0874 8.34286 2.9724 8.22854C2.8574 8.11421 2.7999 7.97254 2.7999 7.80354C2.7999 7.63453 2.8574 7.49169 2.9724 7.37502C3.0874 7.25836 3.2299 7.20002 3.3999 7.20002H6.1999C6.3699 7.20002 6.5124 7.25719 6.6274 7.37151C6.7424 7.48584 6.7999 7.62751 6.7999 7.79651C6.7999 7.96552 6.7424 8.10836 6.6274 8.22502C6.5124 8.34169 6.3699 8.40002 6.1999 8.40002H3.3999Z" fill="#94A3B8"/>
</svg>
