<svg width="14" height="14" viewBox="0 0 14 14" fill="none" xmlns="http://www.w3.org/2000/svg">
<path d="M6.10002 8.08322L4.70002 6.68322C4.56668 6.54988 4.40562 6.48322 4.21682 6.48322C4.02802 6.48322 3.86695 6.54988 3.73362 6.68322C3.58908 6.82775 3.51682 6.99735 3.51682 7.19202C3.51682 7.38615 3.58348 7.54988 3.71682 7.68322L5.58322 9.55042C5.72775 9.69442 5.89442 9.76642 6.08322 9.76642C6.27202 9.76642 6.43868 9.69442 6.58322 9.55042L10.3 5.83362C10.4222 5.71095 10.4528 5.56375 10.392 5.39202C10.3307 5.21975 10.3 5.04455 10.3 4.86642C10.1667 4.73308 10.0027 4.66642 9.80802 4.66642C9.61388 4.66642 9.45015 4.73308 9.31682 4.86642L6.10002 8.08322ZM7.00002 13.6664C6.07788 13.6664 5.21122 13.4915 4.40002 13.1416C3.58882 12.7918 2.88322 12.3168 2.28322 11.7168C1.68322 11.1168 1.20828 10.4112 0.858418 9.60002C0.508551 8.78882 0.333618 7.92215 0.333618 7.00002C0.333618 6.07788 0.508551 5.21122 0.858418 4.40002C1.20828 3.58882 1.68322 2.88322 2.28322 2.28322C2.88322 1.68322 3.58882 1.20828 4.40002 0.858418C5.21122 0.508551 6.07788 0.333618 7.00002 0.333618C7.92215 0.333618 8.78882 0.508551 9.60002 0.858418C10.4112 1.20828 11.1168 1.68322 11.7168 2.28322C12.3168 2.88322 12.7918 3.58882 13.1416 4.40002C13.4915 5.21122 13.6664 6.07788 13.6664 7.00002C13.6664 7.92215 13.4915 8.78882 13.1416 9.60002C12.7918 10.4112 12.3168 11.1168 11.7168 11.7168C11.1168 12.3168 10.4112 12.7918 9.60002 13.1416C8.78882 13.4915 7.92215 13.6664 7.00002 13.6664Z" fill="white"/>
</svg>
