<svg width="14" height="12" viewBox="0 0 14 12" fill="none" xmlns="http://www.w3.org/2000/svg">
<path d="M0.883227 12C0.61656 12 0.413893 11.8832 0.275226 11.6496C0.136026 11.4165 0.133093 11.1834 0.266426 10.9504L6.40003 0.383169C6.53336 0.150103 6.73336 0.0335693 7.00003 0.0335693C7.26669 0.0335693 7.46669 0.150103 7.60003 0.383169L13.7336 10.9504C13.867 11.1834 13.864 11.4165 13.7248 11.6496C13.5862 11.8832 13.3835 12 13.1168 12H0.883227ZM7.01683 4.68317C6.82803 4.68317 6.66403 4.75277 6.52483 4.89197C6.38616 5.03064 6.31683 5.19437 6.31683 5.38317V7.24957C6.31683 7.4389 6.38616 7.6029 6.52483 7.74157C6.66403 7.88077 6.82803 7.95037 7.01683 7.95037C7.20563 7.95037 7.36936 7.88077 7.50803 7.74157C7.64723 7.6029 7.71683 7.4389 7.71683 7.24957V5.38317C7.71683 5.19437 7.64723 5.03064 7.50803 4.89197C7.36936 4.75277 7.20563 4.68317 7.01683 4.68317ZM7.01683 9.99997C7.20563 9.99997 7.36936 9.93064 7.50803 9.79197C7.64723 9.65277 7.71683 9.48877 7.71683 9.29997C7.71683 9.11117 7.64723 8.94717 7.50803 8.80797C7.36936 8.6693 7.20563 8.59997 7.01683 8.59997C6.82803 8.59997 6.66403 8.6693 6.52483 8.80797C6.38616 8.94717 6.31683 9.11117 6.31683 9.29997C6.31683 9.48877 6.38616 9.65277 6.52483 9.79197C6.66403 9.93064 6.82803 9.99997 7.01683 9.99997Z" fill="white"/>
</svg>
